<?xml version="1.0" encoding="utf-8"?>
<!-- Generator: Adobe Illustrator 16.0.0, SVG Export Plug-In . SVG Version: 6.00 Build 0)  -->
<!DOCTYPE svg PUBLIC "-//W3C//DTD SVG 1.1//EN" "http://www.w3.org/Graphics/SVG/1.1/DTD/svg11.dtd">
<svg version="1.1" id="Capa_1" xmlns="http://www.w3.org/2000/svg" xmlns:xlink="http://www.w3.org/1999/xlink" x="0px" y="0px"
	 width="824.756px" height="986.168px" viewBox="0 0 824.756 986.168" enable-background="new 0 0 824.756 986.168"
	 xml:space="preserve">
<path display="none" fill-rule="evenodd" clip-rule="evenodd" fill="#FFFFFF" stroke="#FFFF00" stroke-miterlimit="10" d="
	M-53.818,541.863c28.883-28.447,135.506-4.247,135.506-4.247c2.984,0.37,28.03,4.925,28.346,36.712l0.267,196.558
	c1.994,40.827,54.183,38.381,53.689,0.066l-0.036-195.3c-0.1-33.111,25.566-37.855,28.891-38.321c0,0,107.048-24.382,136.072,4.532
	c96.084,95.715,3.262,522.324-183.392,535.832C-53.363,1092.091-151,637.578-53.818,541.863z"/>
<g display="none">
	<path display="inline" fill-rule="evenodd" clip-rule="evenodd" fill="#29D720" d="M19.479,244.356
		c-0.01,145.433,42.391,368.494,126.663,532.055V96.17H64.004c-29.709,3.445-44.515,62.25-44.525,148.146V244.356z"/>
	<path display="inline" fill-rule="evenodd" clip-rule="evenodd" fill="#15A3ED" d="M652.795,96.17v693.261
		C786.563,538.518,812.282,131.824,739.856,96.17H652.795z"/>
	<path display="inline" fill-rule="evenodd" clip-rule="evenodd" fill="#FF2530" d="M526.134,96.166h-67.161
		c-6.411-0.266-10.418,3.297-10.354,13.333v366.979c0.457,33.342-24.649,50.31-49.15,49.156v460.512
		c5.456,0.08,10.971-0.062,16.544-0.441c40.122-2.731,76.803-17.244,110.121-40.68V96.166z"/>
	<path display="inline" fill-rule="evenodd" clip-rule="evenodd" fill="#FE7F0A" d="M272.803,939.576
		c37.985,28.878,80.207,45.905,126.666,46.574V525.639c-22.241-1.045-43.982-17.02-45.659-49.267l-0.529-367.796
		c-0.09-7.719-3.271-12.409-11.242-12.406h-69.236V939.576z"/>
	<path display="inline" fill-rule="evenodd" clip-rule="evenodd" fill="#FFFC00" d="M146.142,776.411
		c35.007,67.94,77.241,125.593,126.662,163.165V96.17H146.142V776.411z"/>
	<path display="inline" fill-rule="evenodd" clip-rule="evenodd" fill="#C22B8A" d="M526.134,945.046
		c49.663-34.934,91.827-89.73,126.661-155.118V96.166H526.134V945.046z"/>
</g>
<path display="none" fill-rule="evenodd" clip-rule="evenodd" fill="#FFFF00" stroke="#262626" stroke-width="5" stroke-miterlimit="10" d="
	M-31.208-22.444c26.274-25.878,123.265-3.864,123.265-3.864c2.715,0.337,25.5,4.48,25.785,33.396l0.244,178.8
	c1.813,37.139,49.287,34.913,48.838,0.061L166.891,8.293c-0.09-30.121,23.257-34.437,26.281-34.86c0,0,97.377-22.18,123.779,4.123
	c87.404,87.068,2.968,475.138-166.824,487.425C-30.794,478.076-119.609,64.624-31.208-22.444z"/>
<path display="none" fill-rule="evenodd" clip-rule="evenodd" fill="#FFFFFF" d="M150.179,138.602
	c44.748-44.076,209.94-6.583,209.94-6.583c4.625,0.575,43.429,7.631,43.916,56.88l0.415,304.527
	c3.09,63.253,83.944,59.462,83.182,0.103l-0.059-302.578c-0.154-51.301,39.61-58.649,44.76-59.371c0,0,165.853-37.776,210.818,7.022
	c148.864,148.29,5.055,809.239-284.127,830.166C150.884,991.07-0.383,286.892,150.179,138.602z"/>
<path fill-rule="evenodd" clip-rule="evenodd" fill="none" d="M0,4c26.245,27.662,64.832,35.872,101.582,31.095
	C135.175,30.728,153.291,8.092,184,0"/>
<path fill-rule="evenodd" clip-rule="evenodd" fill="#EE4266" d="M97.09,63.534c47.53-46.816,223.004-6.989,223.004-6.989
	c4.911,0.608,46.128,8.104,46.649,60.417l0.444,323.479c3.274,67.183,89.162,63.161,88.354,0.103l-0.061-321.402
	c-0.168-54.491,42.074-62.301,47.541-63.066c0,0,176.174-40.125,223.93,7.459c158.133,157.517,5.373,859.595-301.799,881.82
	C97.838,969.047-62.842,221.051,97.09,63.534z"/>
</svg>
